<svg xmlns="http://www.w3.org/2000/svg" viewBox="0 0 766.8 225.3"><title>Asset 10@3x</title><g id="Layer_2" data-name="Layer 2"><g id="Layer_2-2" data-name="Layer 2"><path d="M0,134.88l39.9-.18v19.5c.3,21.9,12.6,31.8,29.4,31.8,17.7,0,28.2-12,28.2-30.9V8.1h41.4v147c0,38.4-27.6,70.2-69.3,70.2C27.6,225.3,0,197.7,0,156Z"/><path d="M254.7,220.8c-.9-3.3-1.2-9.9-1.2-15.9-8.1,14.1-25.2,19.8-40.8,19.8-35.7,0-56.1-26.1-56.1-58.2V73.2h39.9v85.2c0,16.8,8.1,29.7,27,29.7,18,0,27.9-12,27.9-29.1V73.2h39.9V194.1c0,11.7.6,21.6,1.5,26.7Z"/><path d="M351.3,220.8H311.4V73.2h38.7V91.5c9.3-15.3,26.7-22.2,42.6-22.2,36.9,0,53.4,26.1,53.4,58.5v93H406.2V134.7c0-16.8-8.1-29.4-27.3-29.4-17.7,0-27.6,13.5-27.6,30.6Z"/><path d="M483.9,0c14.1,0,24.6,10.8,24.6,24.9a24.27,24.27,0,0,1-24.6,24.3,24.6,24.6,0,1,1,0-49.2ZM464.1,220.8V73.2H504V220.8Z"/><path d="M667.8,147c0,45.3-33,78.3-77.4,78.3S513,192.3,513,147c0-45.6,33-78.3,77.4-78.3S667.8,101.4,667.8,147Zm-39.9,0c0-27.6-18-42-37.5-42s-37.5,14.4-37.5,42,18,42,37.5,42S627.9,174.6,627.9,147Z"/><path d="M766.8,112.8a54.3,54.3,0,0,0-12-1.2c-20.4,0-38.1,9.9-38.1,41.7v67.5H676.8V73.2h38.7V95.1c9-19.5,29.4-23.1,42-23.1,3.3,0,6,.3,9.3.6Z"/></g></g></svg>